<svg xmlns="http://www.w3.org/2000/svg" viewBox="0 0 24 24" width="24" height="24" fill="none" stroke="currentColor" stroke-width="3" stroke-linecap="round" stroke-linejoin="round">
  <!-- Back speech bubble -->
  <path d="M21 15a2 2 0 0 1-2 2H7l-4 4V5a2 2 0 0 1 2-2h14a2 2 0 0 1 2 2z"/>
  <!-- Letter A -->
  <path d="M8 11h4M10 8v6"/>
  <!-- Front speech bubble -->
  <path d="M17 9a2 2 0 0 1 2 2v8l-3 3h-7a2 2 0 0 1-2-2"/>
  <!-- Character 文 approximation -->
  <path d="M14 11h-4M12 11v5M10 13h4"/>
</svg>
